<svg width="512" height="512" xmlns="http://www.w3.org/2000/svg">
 <title/>

 <g>
  <title>background</title>
  <rect fill="none" id="canvas_background" height="402" width="582" y="-1" x="-1"/>
 </g>
 <g>
  <title>Layer 1</title>
  <path fill="#ffffff" id="svg_2" d="m341.796541,289.983055a15,15 0 0 1 -15,-15a99.37,99.37 0 0 0 -99.25,-99.26a15,15 0 0 1 0,-30c71.27,0 129.25,58 129.25,129.26a15,15 0 0 1 -15,15z"/>
  <g id="svg_4">
   <path fill="#ffffff" id="svg_1" d="m287.315296,420.290119a128.586756,128.586756 0 0 1 -30.037887,-3.787104c-33.941517,-8.189208 -68.892929,-28.963256 -98.399974,-58.496195s-50.306987,-64.490825 -58.496195,-98.399974c-8.622945,-35.669991 -2.472947,-66.18693 17.29768,-85.957557l5.645051,-5.645051a27.31894,27.31894 0 0 1 38.596095,0l32.439623,32.433149a27.305993,27.305993 0 0 1 0,38.596095l-19.1621,19.155627c9.186155,16.119469 21.680363,32.251886 36.446833,47.018356s30.911834,27.267151 47.02483,36.453306l19.155627,-19.1621a27.286572,27.286572 0 0 1 38.596095,0l32.433149,32.433149a27.293046,27.293046 0 0 1 0,38.589622l-5.651525,5.645051c-13.937838,13.963733 -33.229412,21.123626 -55.887301,21.123626zm-144.693278,-240.859832a7.768419,7.768419 0 0 0 -5.560893,2.304631l-5.651525,5.645051c-14.805312,14.805312 -19.129732,38.842095 -12.176997,67.643509c7.360577,30.510466 26.309046,62.212089 53.349618,89.246187s58.735722,45.963146 89.252661,53.349618c28.807887,6.952735 52.831723,2.628315 67.637035,-12.176997l5.645051,-5.645051a7.871998,7.871998 0 0 0 0,-11.12826l-32.426676,-32.433149a7.871998,7.871998 0 0 0 -11.12826,0l-24.282783,24.282783a9.710524,9.710524 0 0 1 -11.328944,1.760842c-19.906574,-10.293155 -39.97499,-25.27973 -58.036564,-43.341304s-33.015781,-38.117043 -43.334831,-58.023616a9.710524,9.710524 0 0 1 1.754368,-11.328944l24.289257,-24.282783a7.871998,7.871998 0 0 0 0,-11.12826l-32.433149,-32.439623a7.813735,7.813735 0 0 0 -5.567367,-2.304631z"/>
   <path fill="#ffffff" id="svg_3" d="m400.422797,299.36987a15,15 0 0 1 -15,-15c0,-89.69 -73,-162.66 -162.65,-162.66a15,15 0 0 1 0,-30c106.23,0 192.65,86.43 192.65,192.66a15,15 0 0 1 -15,15z"/>
  </g>
 </g>
</svg>