<svg width="24" height="24" xmlns="http://www.w3.org/2000/svg">
 <title/>

 <g>
  <title>background</title>
  <rect fill="none" id="canvas_background" height="402" width="582" y="-1" x="-1"/>
 </g>
 <g>
  <title>Layer 1</title>
  <path stroke="null" fill="#ffffff" id="svg_1" d="m17.859763,6.140237l-11.719525,0l0,7.881381l-1.919072,3.838145l15.55767,0l-1.919072,-3.838145l0,-7.881381zm-4.394822,10.254585l-2.929881,0l0,-0.73247l2.929881,0l0,0.73247zm2.929881,-3.662352l-1.560162,0a2.885933,2.885933 0 0 0 -1.084056,-1.611435a2.197411,2.197411 0 1 0 -3.501208,0a2.885933,2.885933 0 0 0 -1.084056,2.343905l-1.560162,0l0,-5.859763l8.789644,0l0,5.127292z"/>
 </g>
</svg>