<?xml version="1.0" encoding="utf-8"?>
<!-- Generator: Adobe Illustrator 24.3.0, SVG Export Plug-In . SVG Version: 6.00 Build 0)  -->
<svg version="1.1" id="Layer_1" xmlns="http://www.w3.org/2000/svg" xmlns:xlink="http://www.w3.org/1999/xlink" x="0px" y="0px"
	 viewBox="0 0 882.6 882.6" style="enable-background:new 0 0 882.6 882.6;" xml:space="preserve">
<style type="text/css">
	.st0{fill-rule:evenodd;clip-rule:evenodd;fill:#FFFFFF;}
</style>
<path class="st0" d="M718.6,401.6c3.4,5.8,4.5,12.4,4.8,19.9l0.5,9.9v69.4l0.5,9.9c1,16.2,12.9,28.2,29.3,29.2l9.9,0.5V431.4
	l0.5-9.9c0.4-7.4,1.5-14.1,4.9-20c11-18.9,35.2-25.4,54.2-14.4c6,3.5,11,8.5,14.4,14.5c3.4,5.8,4.4,12.6,4.8,19.8l0.5,9.9v69.4
	l0.5,9.9c1,16.3,12.9,28.3,29.3,29.2l9.9,0.5v-119c0-43.8-35.5-79.3-79.3-79.3c-22.8,0-44.5,9.8-59.5,26.9
	c-15-17.1-36.7-26.9-59.5-26.9c-16.5,0-31.8,5-44.4,13.6c-7.7-8.6-25-13.6-34.9-13.6v198.3l9.9-0.5c16.6-1.1,28.6-12.8,29.2-29.2
	l0.5-9.9v-69.4l0.5-9.9c0.4-7.5,1.5-14.1,4.8-19.9c7.1-12.2,20.2-19.8,34.3-19.8C698.4,381.8,711.5,389.3,718.6,401.6L718.6,401.6z
	 M39.7,540l9.9,0.5h148.7l-0.5-9.9c-1.3-16.3-12.9-28.2-29.2-29.3l-9.9-0.5H69.4l119-119l-0.5-9.9c-0.8-16.5-12.8-28.4-29.2-29.3
	l-9.9-0.4L0,342.1l0.5,9.9c1.3,16.1,13,28.3,29.2,29.2l9.9,0.5h89.2l-119,119l0.5,9.9C11.4,527.1,23.2,538.9,39.7,540L39.7,540z
	 M566,371.2c38.7,38.7,38.7,101.5,0,140.2c0,0,0,0,0,0c-38.7,38.7-101.5,38.7-140.3,0c-38.7-38.7-38.7-101.5,0-140.2
	c18.6-18.6,43.8-29,70.1-29C522.1,342.1,547.4,352.6,566,371.2L566,371.2z M537.9,399.3c23.2,23.2,23.2,60.9,0,84.2
	c-23.2,23.2-60.9,23.2-84.2,0c-23.2-23.2-23.2-60.9,0-84.2C477,376,514.7,376,537.9,399.3L537.9,399.3z M287.6,342.1
	c26.3,0,51.5,10.5,70.1,29.1c38.7,38.7,38.7,101.5,0,140.2c-38.7,38.7-101.5,38.7-140.3,0c-38.7-38.7-38.7-101.5,0-140.2
	c18.6-18.6,43.8-29,70.1-29L287.6,342.1L287.6,342.1z M329.7,399.2c23.2,23.2,23.2,60.9,0,84.2c-23.2,23.2-60.9,23.2-84.2,0
	c-23.2-23.2-23.2-60.9,0-84.2C268.8,376,306.4,376,329.7,399.2L329.7,399.2z"/>
</svg>
